<?xml version="1.0"?>
<svg version="1.1" width="400" height="200" xmlns="http://www.w3.org/2000/svg"
xmlns:xlink="http://www.w3.org/1999/xlink">
<circle cx="100" cy="100" r="90" fill="none" stroke="whitesmoke"/>
<defs>
	<!-- Laurel leaf -->
	<g id="leaf">
		<path d="M 0,0 a 50,20 -19 0 0 0,20 a 50,20 19 0 0 0,-20"/>
	</g>
	<!-- Laurel branch -->
	<g id="branch">
		<path d="M50,25 a 90,90 0 0 0 40,164" fill="none" stroke="#5FA383"/>
		<g fill="#5FA383">
			<use x="0" y="0" xlink:href="#leaf" transform="translate(50,25) rotate(50)"/>

			<!-- Leaves on left side of branch -->
			<use x="0" y="0" xlink:href="#leaf" transform="translate(30,27) rotate(16)"/>
			<use x="0" y="0" xlink:href="#leaf" transform="translate(15,40) rotate(-5)"/>
			<use x="0" y="0" xlink:href="#leaf" transform="translate(6,55) rotate(-12)"/>
			<use x="0" y="0" xlink:href="#leaf" transform="translate(0,75) rotate(-23)"/>

			<!-- Leaves on right side of branch -->
			<use x="0" y="0" xlink:href="#leaf" transform="translate(50,40) rotate(60)"/>
			<use x="0" y="0" xlink:href="#leaf" transform="translate(40,55) rotate(66)"/>
			<use x="0" y="0" xlink:href="#leaf" transform="translate(33,68) rotate(60)"/>
			<use x="0" y="0" xlink:href="#leaf" transform="translate(30,82) rotate(60)"/>
		</g>
	</g>
</defs>

<!-- Temple portico -->
<g transform="translate(50, 40)" fill="#4097ff">
	<g>
		<path d="M 9,44 h 10 v 50 h -10 Z"/>
		<path d="M 9,44 h 10 v 50 h -10 Z" transform="translate(22, 0)"/>
		<path d="M 9,44 h 10 v 50 h -10 Z" transform="translate(49, 0)"/>
		<path d="M 9,44 h 10 v 50 h -10 Z" transform="translate(71, 0)"/>
	</g>
	<path d="M 5,34 H 95 v 11 H 5 Z" transform="translate(0, 60)"/>
	<path d="M 5,34 H 95 v 11 H 5 Z"/>
	<path d="M 50,0 L 98,33 98,37 H 2 L 2,33 Z"/>
</g>

<!-- Two laurel branches -->
<use x="0" y="0" xlink:href="#branch"/>
<use x="0" y="0" xlink:href="#branch" transform="translate(200,0) scale(-1,1)"/>

<rect x="200" width="1000" y="0" height="1000" fill="white"/>
<g transform="translate(210,60)" style="
	font-family: Trebuchet MS;
	font-size: 30px;
	letter-spacing: 2px;
	fill: dodgerblue;
	font-weight: bold;
	text-shadow: black 2px 1px;
">
	<text>Communio</text>
	<text dy="1.1em">Templorum</text>
	<text dy="2.2em">Romanorum</text>
</g>
</svg>
